<svg version="1" xmlns="http://www.w3.org/2000/svg" width="933.333" height="933.333" viewBox="0 0 700.000000 700.000000"><path d="M45 62l-15.5.5-.1 36.2V135l3 .1c1.7 0 4 .2 5.1.4 1.1.2 5.6.7 10 .9 29 2 32.7 2.4 33.6 3.8.7 1.1.7 1.1-1.6 40.8-1 16.5-1.5 25.2-2.1 34.5-.3 5.5-.7 12.9-.9 16.5-.2 3.6-.7 11.7-1 18-.3 6.3-.8 14-1 17-.2 3-.7 10.4-1 16.5-.3 6-.8 13.7-1 17-.2 3.3-.7 10.9-1 17-.3 6-.8 13.8-1 17.2-.3 3.4-.7 10.3-1 15.5-.3 5.1-.7 13.6-1 18.8-.3 5.2-.7 13.3-1 18-.5 10.2-1.4 24.9-2 34.5-.3 3.8-.7 11.5-1 17-1.2 21.2-1.5 27.2-2 34.5-.3 4.1-.7 12-1 17.5-.3 5.5-.7 13.6-1 18-.3 4.4-.7 11.6-1 16-1.5 23.8-3.2 30.7-8.9 35-6.1 4.6-10.4 5.8-25.1 7-12.7 1-18 1.7-18.9 2.5-.9.9-1.4 67.5-.4 68.5.6.7 169.4 1.1 191.6.5l12.2-.4.1-10.5c.3-36.2-.1-62.1-1-62.2-1.1-.1-11.5-.6-25.6-1.3-22.4-1.1-27.5-1.5-28.5-2.1-1-.6-.4-18.4 1.5-49 .3-4.4.7-12.5 1-18 .3-5.5.7-13.2 1-17 .3-3.9.7-12 1-18 .6-12.6 1.2-24.9 2-38.5.3-5.2.7-13.6 1-18.5.3-5 .7-13.5 1-19 .3-5.5.8-13.2 1-17 .3-3.9.7-12.8 1-19.9.3-7.1.8-15.2 1-18 .2-2.8.7-11 1-18.1.4-7.2.8-15.7 1-19 .2-3.3.6-11.4 1-18 1-20.8 2-32.3 3-33.3.1-.2 1.7 3.4 3.5 8 1.7 4.6 3.7 9.6 4.4 11.3.7 1.6 3 7.5 5 13 2.1 5.5 4.8 12.7 6.1 16 1.3 3.3 3.5 8.9 4.8 12.5 1.4 3.6 7.1 18.4 12.8 33 5.6 14.6 11.2 29.2 12.4 32.5 1.3 3.3 14.5 37.7 29.5 76.5 32.3 83.7 36.6 94.9 39.1 101.5 1 2.7 4.7 12.4 8.2 21.5l6.4 16.5 41.1.3 41.1.3 1.6-3.8c.9-2.1 2.8-7 4.2-10.8 1.4-3.9 3.1-8.4 3.9-10 .7-1.7 7.8-19.9 15.7-40.5 12.3-31.7 35.4-91.6 45.9-119 1.6-4.1 4.2-10.9 5.8-15 1.6-4.1 4.2-10.9 5.8-15 1.6-4.1 8.6-22.4 15.6-40.5 7-18.2 13.5-35 14.5-37.5 1.1-2.5 3.4-8.3 5.1-13 1.8-4.7 3.8-9.9 4.5-11.5.7-1.7 2.9-7.3 4.9-12.7 4.6-12.1 7.2-17.3 7.9-16.2.3.5.8 6.8 1.1 13.9.4 7.2.8 16.4 1.1 20.5.2 4.1.6 13.1 1 20 .3 6.9.8 15.6 1 19.5.2 3.8.7 11.7 1 17.5.3 5.8.7 13.9 1 18 .2 4.1.7 12.4 1 18.5.3 6 .8 14.6 1 19 .3 4.4.7 12.9 1 19 .3 6 .8 14.4 1 18.5.2 4.1.7 12.4 1 18.5.3 6 .8 14.1 1 18 .2 3.8.7 12.4 1 19 .6 12.6.9 17.2 2.1 37.5 2.1 36.1 1.1 41.9-7.6 46.8-4.6 2.6-7.2 3.1-23.7 4.6-3.5.3-9.1.9-12.5 1.2-3.5.3-6.7 1-7.3 1.5-.9.9-1.7 65.9-.8 68.4.2.7 32.7.9 95.1.9 108.2-.2 112-.3 112.8-1.6 1.1-1.7.8-69.8-.3-70.9-1-1-3.8-1.3-26.3-2.4-7.4-.4-15.5-.9-18-1-2.5-.2-5.3-.4-6.2-.4-2.2-.1-2.7-2.9-3.3-18.6-.3-7.2-.8-15.3-1-18-.2-2.8-.6-11.1-1-18.5s-.8-16-1-19c-.2-3-.7-11.4-1-18.5-.3-7.2-.8-15-1-17.5-.2-2.5-.7-10.6-1-18-.4-7.4-.8-15.8-1-18.5-.2-2.8-.6-11.1-1-18.5-.3-7.4-.8-15.3-1-17.5-.2-2.2-.6-9.9-1-17-.3-7.2-.8-16.4-1.1-20.5-.2-4.1-.6-12.5-.9-18.5-.3-6.1-.7-14.4-1-18.5-.2-4.1-.7-12-1-17.5-.6-11.9-1.3-25-2-36-.2-4.4-.7-13.2-1-19.5-.3-6.3-.8-14.2-1-17.5-2.4-35.3-2.5-61.4-.2-66.5 3.9-9 12.7-12.8 33.2-14.5 11.6-1 16-1.7 17-2.6 1.4-1.4 1.2-66.6-.2-68-.7-.7-30.3-1.1-85.6-1.3l-84.6-.2-1.2 3c-.6 1.7-1.7 4.4-2.4 6.1-.7 1.6-8.1 21.2-16.5 43.5-14.9 39.8-22.4 59.6-30 79.5-3.1 7.9-35.5 93.6-85.7 226-1.8 4.9-5.4 14.5-8 21.3-2.6 7.1-5 12.1-5.7 11.9-1.2-.4-4-7.4-26.2-66.7-8.5-22.8-16-42.6-16.6-44-.6-1.4-2.3-5.9-3.8-10s-7.3-19.4-12.8-34c-5.5-14.6-12.1-32.1-14.7-39-6.8-18.4-9.2-24.7-25-66.6-8-21-15.1-39.9-15.8-42-2.3-6.3-13.9-37.3-22.1-58.9-8.7-22.8-8.5-22.4-8.6-23 0-.3-.7-1.9-1.5-3.5l-1.6-3-17.2-.1c-65.3-.4-127.5-.3-140.7.1z"/></svg>