<?xml version="1.0" standalone="no"?>
<!DOCTYPE svg PUBLIC "-//W3C//DTD SVG 20010904//EN"
 "http://www.w3.org/TR/2001/REC-SVG-20010904/DTD/svg10.dtd">
<svg version="1.0" xmlns="http://www.w3.org/2000/svg"
 width="1536.000000pt" height="1536.000000pt" viewBox="0 0 1536.000000 1536.000000"
 preserveAspectRatio="xMidYMid meet">
<metadata>
Created by potrace 1.11, written by Peter Selinger 2001-2013
</metadata>
<g transform="translate(0.000000,1536.000000) scale(0.100000,-0.100000)"
fill="#000000" stroke="none">
<path d="M2170 12549 c-30 -4 -84 -10 -120 -14 -36 -4 -67 -8 -70 -10 -3 -2
-21 -6 -40 -9 -32 -5 -119 -25 -195 -45 -62 -17 -140 -44 -152 -54 -7 -5 -13
-7 -13 -4 0 3 -27 -8 -60 -24 -33 -16 -63 -29 -66 -29 -18 0 -202 -118 -279
-178 -134 -105 -237 -219 -328 -362 -46 -73 -97 -176 -97 -195 0 -8 -4 -15 -8
-15 -8 0 -47 -119 -44 -132 1 -5 -2 -8 -6 -8 -5 0 -9 -6 -10 -12 0 -7 -3 -24
-7 -38 -4 -14 -8 -32 -9 -40 -1 -9 -5 -21 -10 -28 -4 -6 -5 -12 -2 -12 2 0 -2
-26 -9 -57 -23 -102 -30 -202 -29 -438 1 -256 7 -342 40 -575 3 -19 7 -53 9
-75 9 -76 17 -140 21 -160 3 -11 6 -33 9 -50 2 -16 6 -46 9 -65 3 -19 8 -51
10 -70 3 -19 7 -46 10 -60 3 -14 7 -47 10 -75 8 -66 15 -120 22 -175 10 -75
11 -83 19 -150 3 -36 8 -78 10 -95 19 -144 25 -390 12 -465 -5 -25 -17 -65
-28 -89 -10 -24 -19 -50 -19 -57 0 -8 -4 -14 -9 -14 -5 0 -12 -8 -15 -17 -9
-29 -87 -108 -143 -146 -66 -44 -167 -83 -266 -102 -43 -8 -81 -14 -85 -14 -4
1 -9 0 -12 -1 -9 -3 -124 -13 -173 -14 l-47 -1 2 -690 3 -690 40 -2 c37 -1 61
-3 175 -18 73 -10 79 -11 86 -18 4 -4 18 -7 30 -7 13 0 33 -4 46 -9 29 -12 62
-24 68 -26 18 -4 92 -44 130 -69 44 -29 130 -110 130 -122 0 -3 9 -19 20 -34
67 -95 90 -275 66 -525 -8 -77 -18 -168 -21 -185 -2 -8 -6 -44 -9 -80 -4 -36
-8 -75 -10 -85 -2 -11 -7 -45 -10 -75 -7 -51 -14 -105 -21 -155 -10 -63 -19
-132 -19 -147 0 -10 -3 -18 -6 -18 -3 0 -5 -10 -6 -22 0 -22 -11 -107 -20
-159 -7 -48 -16 -113 -19 -149 -9 -89 -15 -148 -20 -180 -14 -91 -20 -223 -20
-415 0 -258 11 -360 57 -535 11 -41 21 -80 22 -87 1 -7 5 -16 9 -19 4 -4 7
-13 7 -19 0 -7 8 -30 17 -51 9 -22 16 -42 15 -46 -1 -5 3 -8 10 -8 6 0 8 -3 5
-6 -8 -8 42 -105 95 -187 21 -32 38 -62 38 -67 0 -4 7 -10 15 -14 8 -3 15 -10
15 -16 0 -10 21 -36 83 -102 15 -17 27 -34 27 -39 0 -5 4 -9 9 -9 5 0 35 -25
67 -55 33 -30 63 -55 68 -55 5 0 16 -8 25 -18 20 -22 145 -104 189 -123 17 -8
32 -17 32 -21 0 -5 4 -8 10 -8 5 0 37 -13 72 -29 86 -39 163 -70 185 -74 10
-2 38 -10 63 -17 25 -8 48 -14 53 -16 4 -1 10 -3 15 -4 4 -1 10 -2 13 -2 4 1
22 -3 40 -9 46 -14 91 -22 189 -34 25 -3 61 -8 80 -11 19 -4 236 -9 483 -11
l447 -5 0 692 0 692 -33 -3 c-18 -2 -38 0 -45 5 -6 4 -12 4 -12 -1 0 -9 -207
-9 -217 0 -3 4 -13 2 -23 -3 -10 -5 -19 -8 -21 -6 -2 2 -35 7 -73 11 -38 3
-73 8 -76 10 -4 2 -19 6 -33 9 -46 8 -134 54 -170 89 -33 31 -103 127 -93 127
3 0 -1 15 -8 33 -19 45 -29 118 -29 212 0 78 11 255 18 305 2 14 7 57 10 95 3
39 8 84 10 100 2 17 7 59 10 95 4 36 9 83 11 105 9 70 21 192 29 285 9 114 17
200 21 235 2 22 6 76 9 120 4 44 8 96 10 115 5 50 18 287 18 335 0 49 -13 217
-19 248 -2 12 -7 42 -10 67 -3 25 -8 48 -11 53 -2 4 -7 20 -9 35 -22 123 -124
332 -223 455 -60 74 -180 176 -256 217 -22 11 -47 25 -55 30 -24 14 -87 40
-97 40 -4 0 -19 6 -33 13 -14 7 -69 24 -122 37 -54 13 -98 28 -98 31 0 4 26
13 58 19 31 6 66 15 77 20 28 12 98 35 110 35 34 2 217 107 288 165 29 23 117
111 117 116 0 6 20 31 43 52 9 9 17 22 17 29 0 7 4 13 9 13 8 0 125 223 126
240 1 3 11 37 23 75 21 69 30 106 37 155 2 14 6 41 9 60 16 92 21 311 11 440
-3 36 -8 97 -10 135 -14 195 -23 305 -41 475 -2 25 -7 72 -10 105 -2 33 -7 76
-9 95 -3 19 -7 67 -10 106 -6 65 -12 109 -15 109 0 0 -3 23 -5 50 -2 28 -7 77
-10 110 -3 33 -8 83 -10 110 -2 28 -7 79 -11 115 -8 84 -9 256 -2 295 3 17 9
47 13 69 11 56 61 145 106 188 40 39 118 82 167 92 15 4 38 9 52 12 83 17 390
26 390 10 0 -4 6 -4 13 1 6 5 29 9 50 7 l37 -2 0 690 0 689 -422 -2 c-233 -2
-448 -6 -478 -10z"/>
<path d="M12292 11874 l3 -689 36 -1 c20 -1 41 -4 47 -8 6 -3 13 -3 15 1 12
19 359 1 437 -22 62 -19 150 -64 150 -77 0 -4 6 -8 13 -8 18 0 84 -108 102
-166 22 -70 28 -117 28 -209 0 -82 -10 -239 -19 -310 -3 -22 -7 -65 -9 -95 -2
-30 -6 -75 -10 -100 -3 -25 -8 -70 -11 -100 -3 -30 -7 -71 -10 -90 -2 -19 -7
-62 -10 -95 -7 -85 -13 -144 -18 -190 -3 -22 -7 -69 -10 -105 -3 -36 -8 -94
-12 -130 -3 -36 -7 -76 -7 -90 -1 -14 -6 -28 -12 -32 -6 -5 -5 -8 3 -8 7 0 11
-4 8 -8 -8 -14 -27 -310 -27 -422 1 -101 15 -305 21 -305 1 0 3 -11 6 -25 2
-14 9 -46 15 -71 6 -26 12 -53 13 -60 2 -8 6 -21 9 -29 3 -8 15 -41 26 -72 35
-97 96 -210 157 -288 32 -41 63 -78 69 -82 5 -3 27 -22 47 -41 21 -19 68 -55
105 -80 59 -40 92 -57 208 -107 45 -20 163 -54 219 -64 51 -9 50 -22 -3 -31
-19 -3 -37 -8 -41 -10 -3 -2 -20 -7 -36 -10 -33 -7 -42 -9 -64 -18 -8 -3 -46
-17 -85 -31 -70 -27 -143 -65 -226 -120 -42 -28 -209 -187 -209 -199 0 -3 -13
-25 -29 -49 -58 -87 -131 -252 -145 -328 -3 -14 -5 -26 -7 -27 -1 -2 -3 -7 -4
-13 -1 -5 -3 -11 -4 -12 -1 -2 -4 -19 -7 -38 -2 -19 -7 -42 -10 -50 -3 -8 -8
-37 -10 -65 -3 -27 -7 -66 -9 -85 -7 -53 -7 -211 1 -350 5 -69 8 -149 8 -177
1 -29 3 -53 6 -53 3 0 6 -17 7 -37 0 -35 5 -96 19 -243 3 -30 7 -73 9 -95 8
-96 16 -183 21 -215 2 -19 7 -64 9 -100 3 -36 8 -76 11 -90 3 -14 8 -52 10
-85 2 -33 6 -76 9 -95 2 -19 7 -62 9 -95 3 -33 8 -94 12 -135 25 -286 -8 -436
-119 -543 -81 -78 -204 -115 -392 -118 -38 0 -74 0 -80 1 -5 1 -14 1 -20 0
-31 -7 -56 -6 -61 1 -2 4 -12 5 -20 2 -9 -3 -41 -6 -72 -7 l-57 -1 -2 -688 -3
-688 453 4 c248 3 466 8 482 11 17 3 53 8 80 11 51 6 90 12 90 15 0 1 9 3 20
4 11 2 46 8 77 15 32 7 59 11 61 9 2 -2 11 3 20 11 10 7 17 11 17 7 0 -3 12
-1 28 5 15 6 34 12 42 14 67 14 327 133 364 167 11 10 23 18 27 18 9 0 81 47
89 58 3 4 21 19 40 33 92 69 233 213 264 268 5 9 12 18 15 21 4 3 22 30 41 60
19 30 37 57 40 60 6 6 75 150 76 159 0 3 9 26 21 51 11 25 24 61 28 80 4 19
10 40 13 45 4 6 7 15 8 21 1 7 9 43 17 80 9 38 18 87 22 110 3 23 8 61 12 85
9 59 8 495 -1 589 -11 122 -21 204 -35 305 -5 33 -9 67 -9 75 -1 19 -11 90
-21 144 -4 23 -7 54 -7 69 1 15 -1 27 -4 27 -3 0 -7 12 -8 28 -1 15 -4 43 -7
62 -3 19 -8 51 -10 70 -3 19 -7 49 -9 65 -3 17 -8 53 -11 80 -4 28 -8 60 -10
71 -2 12 -6 46 -9 75 -4 30 -9 72 -11 94 -3 22 -7 65 -10 95 -3 30 -8 73 -11
95 -2 22 -6 100 -8 173 -3 103 0 147 14 200 20 80 44 137 59 146 6 4 9 11 7
15 -7 11 103 122 152 154 52 34 206 97 237 97 12 0 25 3 29 7 3 4 13 8 21 9 7
1 33 5 57 9 50 7 138 16 188 18 l35 2 3 690 2 690 -47 0 c-27 0 -58 3 -71 7
-16 6 -21 5 -16 -4 5 -7 3 -8 -6 -3 -7 4 -27 9 -44 10 -17 2 -31 4 -31 5 0 1
-13 3 -30 5 -65 6 -118 16 -129 23 -6 3 -22 8 -36 10 -37 4 -170 63 -170 75 0
4 -6 7 -13 7 -15 0 -97 76 -97 91 0 5 -4 7 -10 4 -5 -3 -10 -1 -10 5 0 7 -9
25 -21 41 -11 16 -22 35 -23 42 -1 7 -4 17 -7 22 -9 14 -27 74 -36 115 -14 69
-8 320 13 475 2 22 7 56 9 75 3 19 7 62 10 95 3 33 8 74 12 90 3 17 7 44 9 60
18 163 21 190 24 190 2 0 4 14 13 90 4 28 9 61 12 75 3 14 8 41 10 60 6 48 13
105 20 151 9 60 14 99 21 169 3 35 8 73 10 85 26 136 25 654 -2 788 -2 12 -7
36 -9 52 -3 17 -8 37 -10 45 -2 8 -6 27 -9 42 -4 24 -17 69 -34 118 -3 8 -6
17 -6 20 -2 11 -28 76 -38 94 -5 10 -11 28 -14 39 -2 11 -9 24 -16 29 -7 4
-10 8 -6 8 4 0 -2 17 -14 38 -12 20 -26 46 -32 57 -15 25 -66 105 -77 119 -97
123 -139 167 -230 246 -29 25 -57 50 -63 55 -27 24 -105 75 -115 75 -6 0 -11
4 -11 8 0 19 -287 152 -390 182 -25 7 -61 18 -81 26 -20 7 -39 11 -41 8 -3 -2
-18 0 -33 6 -16 6 -40 13 -54 15 -14 2 -37 6 -51 8 -14 3 -50 8 -80 12 -30 4
-66 9 -80 12 -14 2 -231 7 -483 10 l-457 5 2 -688z"/>
<path d="M4109 10816 c-6 -50 -3 -6083 2 -6091 5 -7 299 -10 851 -10 l843 1 2
1674 c1 921 4 1683 5 1693 2 11 16 -21 32 -70 15 -48 32 -97 36 -108 18 -43
51 -141 56 -164 3 -13 11 -36 19 -52 8 -15 15 -36 15 -47 0 -10 3 -22 7 -26 4
-3 8 -12 9 -19 4 -17 109 -321 116 -333 3 -5 8 -21 12 -36 3 -15 11 -40 18
-55 6 -15 12 -34 14 -40 2 -11 19 -62 42 -123 3 -8 4 -18 4 -22 -1 -5 2 -8 6
-8 4 0 8 -8 9 -17 0 -10 35 -117 78 -238 42 -121 78 -224 79 -230 2 -5 6 -18
9 -27 4 -10 10 -26 14 -35 3 -10 7 -22 9 -28 6 -22 44 -136 82 -242 22 -62 38
-113 35 -113 -3 0 -1 -6 5 -12 5 -7 17 -35 25 -63 14 -47 81 -241 94 -275 4
-8 7 -17 8 -20 13 -43 36 -111 100 -295 42 -121 78 -231 81 -245 3 -13 9 -29
13 -35 4 -5 18 -44 31 -85 13 -41 28 -81 33 -87 5 -7 6 -13 2 -13 -4 0 -2 -7
5 -15 7 -8 9 -15 4 -15 -4 0 -3 -5 4 -12 7 -7 12 -22 12 -33 0 -12 3 -25 7
-28 4 -4 14 -28 23 -54 l16 -47 708 -1 c461 0 710 3 715 10 4 6 18 42 31 80
12 39 27 76 33 82 5 7 7 13 3 13 -5 0 1 19 30 95 4 11 8 22 9 25 1 3 4 12 8
20 3 8 10 31 16 50 8 30 48 148 68 200 8 21 14 43 15 58 1 6 5 12 10 12 4 0 7
3 7 8 -1 4 0 10 1 15 1 4 3 10 4 15 1 4 15 45 31 92 16 47 30 90 32 95 3 10
45 126 56 155 3 8 22 65 42 125 19 61 38 117 42 125 3 8 7 20 9 25 1 6 23 71
49 145 26 74 48 140 50 145 1 6 6 21 12 35 5 14 23 66 39 115 16 50 34 93 39
97 6 4 7 8 3 8 -4 0 18 71 48 158 31 86 59 171 63 187 4 17 13 39 18 50 6 11
11 22 11 25 0 3 6 19 12 35 7 17 13 35 14 40 6 23 38 121 99 298 36 103 62
187 59 187 -4 0 -2 4 3 8 9 5 35 75 40 102 0 3 3 10 6 15 4 6 10 24 14 40 10
35 10 35 18 55 7 17 80 231 93 270 4 14 7 29 6 33 -1 5 1 6 6 3 4 -2 8 -756 7
-1675 0 -1105 3 -1672 10 -1674 6 -2 388 -3 850 -2 l840 1 2 233 c1 128 4 235
6 238 3 2 1 20 -3 39 -4 19 -4 36 0 39 4 3 4 21 0 40 -4 19 -4 37 0 40 4 3 4
21 0 40 -4 19 -5 37 -1 39 3 2 4 165 1 361 -3 196 -2 359 1 361 4 2 3 20 -1
39 -4 19 -4 37 0 40 4 3 4 21 0 40 -4 19 -4 37 0 40 4 3 4 21 0 40 -4 19 -4
37 0 40 4 3 4 21 0 40 -4 19 -4 37 0 40 4 3 4 21 0 40 -4 19 -4 37 0 40 4 3 4
21 0 40 -4 19 -4 37 0 40 4 3 4 21 0 40 -4 19 -5 37 -1 39 3 2 4 165 1 361 -3
196 -2 359 1 361 4 2 3 20 -1 39 -4 19 -4 37 0 40 4 3 4 21 0 40 -4 19 -4 37
0 40 4 3 4 21 0 40 -4 19 -4 37 0 40 4 3 4 21 0 40 -4 19 -4 37 0 40 4 3 4 21
0 40 -4 19 -4 37 0 40 4 3 4 21 0 40 -4 19 -4 37 0 40 4 3 4 21 0 40 -4 19 -5
37 -1 39 3 2 4 165 1 361 -3 196 -2 359 1 361 4 2 3 20 -1 39 -4 19 -4 37 0
40 4 3 4 21 0 40 -4 19 -4 37 0 40 4 3 4 21 0 40 -4 19 -4 37 0 40 4 3 4 21 0
40 -4 19 -4 37 0 40 4 3 4 21 0 40 -4 19 -4 37 0 40 4 3 4 21 0 40 -4 19 -4
37 0 40 4 3 4 21 0 40 -4 19 -5 37 -1 39 3 2 4 165 1 361 -3 196 -2 359 1 361
4 2 3 20 -1 39 -4 19 -4 37 0 40 4 3 4 21 0 40 -4 19 -4 37 0 40 4 3 4 21 0
40 -4 19 -4 37 0 40 4 3 4 21 0 40 -4 19 -4 37 0 40 4 3 4 21 0 40 -4 19 -4
37 0 40 4 3 4 21 0 40 -4 19 -4 37 0 40 4 3 4 21 0 40 -4 19 -5 37 -1 39 3 2
4 66 1 143 l-5 138 -1022 1 -1022 0 -17 -40 c-20 -50 -18 -46 -94 -241 -33
-88 -60 -163 -58 -166 2 -3 -3 -13 -11 -22 -7 -10 -10 -17 -6 -17 4 0 3 -6 -2
-12 -6 -7 -16 -31 -23 -53 -7 -22 -20 -56 -28 -75 -9 -19 -17 -39 -18 -45 -4
-17 -104 -278 -120 -312 -8 -17 -14 -38 -14 -46 0 -9 -4 -18 -9 -21 -5 -4 -15
-29 -22 -56 -7 -28 -16 -50 -21 -50 -4 0 -7 -3 -6 -7 2 -9 -9 -45 -27 -88 -16
-38 -59 -148 -61 -155 0 -3 -4 -14 -9 -25 -41 -106 -58 -152 -60 -165 -2 -8
-4 -17 -5 -20 -1 -3 -2 -8 -1 -12 0 -5 -3 -8 -7 -8 -5 0 -21 -40 -38 -90 -16
-49 -32 -90 -36 -90 -5 0 -8 -6 -8 -13 0 -11 -128 -360 -157 -427 -3 -8 -7
-17 -8 -20 -2 -11 -46 -126 -55 -145 -4 -11 -24 -63 -43 -115 -19 -52 -38
-104 -43 -115 -4 -11 -6 -23 -6 -27 1 -5 -2 -8 -8 -8 -5 0 -7 -7 -4 -15 4 -8
2 -15 -4 -15 -8 0 -23 -46 -21 -66 0 -4 -3 -10 -9 -13 -5 -3 -20 -40 -35 -81
-24 -72 -108 -294 -126 -335 -5 -11 -39 -101 -76 -200 -98 -264 -145 -386
-162 -425 -8 -19 -16 -42 -18 -50 -2 -8 -10 -30 -18 -49 -12 -28 -15 -30 -21
-15 -54 145 -171 447 -183 473 -8 18 -16 39 -18 45 -1 6 -8 25 -14 41 -7 17
-19 47 -27 68 -7 20 -20 52 -28 70 -8 17 -19 46 -24 62 -10 30 -33 89 -90 235
-16 41 -64 165 -106 275 -42 110 -81 209 -85 220 -8 17 -25 61 -97 250 -4 11
-8 23 -8 27 -1 4 -7 13 -13 20 -7 6 -13 21 -13 33 0 12 -5 26 -12 33 -7 7 -8
12 -4 12 5 0 1 11 -8 25 -9 14 -14 25 -11 25 3 0 0 10 -7 23 -7 12 -13 25 -14
30 -1 4 -3 9 -4 12 -1 3 -3 8 -5 13 -3 11 -16 45 -26 67 -4 11 -18 45 -29 75
-11 30 -24 64 -29 75 -16 38 -28 70 -51 130 -12 33 -26 70 -31 83 -5 12 -13
32 -18 45 -40 97 -124 314 -125 322 -1 6 -8 20 -14 33 -7 12 -10 22 -7 22 3 0
-4 18 -15 40 -11 22 -18 40 -14 40 4 0 2 6 -4 13 -5 6 -26 55 -45 107 -20 52
-70 183 -113 290 -42 107 -77 200 -78 205 -1 6 -12 32 -24 59 -12 27 -22 53
-22 58 0 5 -9 28 -19 51 -35 78 -50 117 -44 117 3 0 0 6 -6 13 -6 8 -8 17 -4
20 3 4 1 7 -5 7 -7 0 -12 8 -12 18 0 9 -6 28 -13 42 l-13 25 -1027 1 c-715 0
-1027 -3 -1028 -10z"/>
</g>
</svg>
