<svg xmlns="https://www.w3.org/2000/svg" xmlns:xlink="https://www.w3.org/1999/xlink" id="Capa_1" x="0" y="0" enable-background="new 0 0 468.293 468.293" version="1.1" viewBox="0 0 468.293 468.293" xml:space="preserve"><polygon fill="#FCD462" points="86.79 349.659 39.961 109.893 151.102 229.776 240.39 93.034 325.307 228.527 428.332 129.873 386.498 349.659"/><path fill="#F6C358" d="M376.507,342.79H89.288c-19.356,0-35.59,16.234-35.59,36.215c0,19.98,16.234,36.215,35.59,36.215	h287.219c19.356,0,35.59-16.234,35.59-36.215C412.098,359.024,396.488,342.79,376.507,342.79z"/><g><circle cx="39.961" cy="109.268" r="39.961" fill="#E56353"/><circle cx="428.332" cy="122.38" r="39.961" fill="#E56353"/></g><circle cx="237.268" cy="93.034" r="39.961" fill="#44C4A1"/><polygon fill="#E56353" points="265.366 260.371 234.146 326.556 202.927 260.371 234.146 194.81"/><polygon fill="#FFF" points="212.293 229.776 218.537 217.912 224.78 229.776 236.644 236.019 224.78 242.263 218.537 254.127 212.293 242.263 200.429 236.019"/></svg>