<?xml version="1.0" encoding="utf-8"?>
<!DOCTYPE svg PUBLIC "-//W3C//DTD SVG 1.1//EN" "http://www.w3.org/Graphics/SVG/1.1/DTD/svg11.dtd">
<svg xmlns="http://www.w3.org/2000/svg" xmlns:xlink="http://www.w3.org/1999/xlink" version="1.1" viewBox="0 0 512 512" enable-background="new 0 0 512 512" width="512px" height="512px">
  <g>
    <g>
      <g>
        <path d="m229.4,93.8c-26.9-2.3-50.9-18.3-64-41.8 27,2.3 50.9,18.3 64,41.8zm32.6,38.3c5.3-1 9.8-4.6 12.6-9.2 2.9-4.6 3.8-10.4 2.7-15.7-12.3-55.8-69.7-108.9-144.4-93.5-5.3,1.1-9.8,4.6-12.6,9.2-2.9,4.6-3.8,10.4-2.7,15.7 12.3,55.7 68.1,107.6 144.4,93.5z" fill="#FFFFFF"/>
        <path d="m412.9,335.3c-20.1,75.4-80.6,139.2-130.6,125.5-6.2-1.7-12-4.5-17.3-8.3-5.7-4.1-13.3-4.1-19.1,0-5.2,3.7-10.9,6.5-17.1,8.1-50.1,13.7-110.6-50.1-130.6-125.5-20.1-75.4 7.9-134 58-147.7 28.5-7.8 58,0.6 81.8,23.2 10,9.4 25.3,9.4 35.3,0 23.8-22.5 53.2-30.8 81.6-23 50.1,13.7 78.1,72.3 58,147.7zm-48-185.1c-38.2-10.4-77.2-1.3-108.9,25.3-31.6-26.5-70.7-35.7-108.9-25.3-69,18.9-108.9,94.6-83.3,190.8 25.5,96 106.9,176.1 175.9,157.2 5.7-1.6 11.2-3.8 16.3-6.5 5.2,2.8 10.6,5 16.3,6.5 69,18.9 150.3-61.2 175.9-157.3 25.6-96.1-14.3-171.9-83.3-190.7z" fill="#FFFFFF"/>
      </g>
    </g>
  </g>
</svg>
