<?xml version="1.0" encoding="utf-8"?>
<!DOCTYPE svg PUBLIC "-//W3C//DTD SVG 1.1//EN" "http://www.w3.org/Graphics/SVG/1.1/DTD/svg11.dtd">
<svg xmlns="http://www.w3.org/2000/svg" xmlns:xlink="http://www.w3.org/1999/xlink" version="1.1" viewBox="0 0 512 512" enable-background="new 0 0 512 512" width="512px" height="512px">
  <g>
    <g>
      <path d="m68.6,247.2c0-99 83.3-179.5 185.7-179.5 102.4,0 185.7,80.5 185.7,179.5 0,99-83.3,179.5-185.7,179.5-102.4,0-185.7-80.5-185.7-179.5zm-1.5-141c0.2-14.6 6.3-28.4 17.1-38.6 16.2-15.3 39.4-19.5 59.4-12.7-29.6,16.2-55.2,38.6-74.7,65.5-1.2-4.6-1.8-9.3-1.8-14.2zm360.6-38.6c10.9,10.3 16.9,24 17.1,38.6 0.1,6-0.9,11.9-2.8,17.5-19.5-28-45.5-51.3-75.8-68.1 20.5-7.8 44.8-3.8 61.5,12zm53.4,179.6c0-28.7-5.7-56.1-16-81.3 13.8-17.1 21.1-38.1 20.9-60.2-0.3-25.7-10.9-49.7-29.9-67.6-37.6-35.6-97.5-36-135.6-1.6-21-6.2-43.2-9.6-66.2-9.6-22.1,0-43.5,3.1-63.7,8.8-38.1-33.6-97.4-33-134.7,2.4-19,17.9-29.6,41.9-29.9,67.7-0.3,20.9 6.3,40.8 18.6,57.3-11.1,25.9-17.2,54.3-17.2,84.1 0,65.2 29.3,123.9 75.8,164.3l-54.2,54.8c-8,8-7.9,21 0.3,28.9 8.1,7.9 21.1,7.8 29.1-0.2l58.6-59.2c34.3,20.2 74.4,31.8 117.3,31.8 42.9,0 83.1-11.6 117.3-31.8l58.6,59.2c8,8.1 21,8.2 29.1,0.3 8.1-7.9 8.2-20.8 0.3-28.9l-54.3-54.8c46.5-40.5 75.8-99.2 75.8-164.4z" fill="#FFFFFF"/>
      <path d="m324.2,226.8h-49.4v-92.8c0-11.3-9.2-20.4-20.6-20.4-11.4,0-20.6,9.1-20.6,20.4v113.2c0,11.3 9.2,20.4 20.6,20.4h69.9c11.4,0 20.6-9.1 20.6-20.4 0.1-11.3-9.1-20.4-20.5-20.4z" fill="#FFFFFF"/>
    </g>
  </g>
</svg>
