<?xml version="1.0" encoding="utf-8"?>
<!DOCTYPE svg PUBLIC "-//W3C//DTD SVG 1.1//EN" "http://www.w3.org/Graphics/SVG/1.1/DTD/svg11.dtd">
<svg xmlns="http://www.w3.org/2000/svg" xmlns:xlink="http://www.w3.org/1999/xlink" version="1.1" viewBox="0 0 512 512" enable-background="new 0 0 512 512" width="512px" height="512px">
  <g>
    <g>
      <path d="m460.2,374.3h-40.6l-28.9-51.5c13.2-17.3 21.1-38.9 21.1-62.1 0-57.3-47.4-103.9-105.7-103.9-58.3,0-105.7,46.6-105.7,103.9 0,23.3 7.8,44.8 21.1,62.2l-28.9,51.5h-140.8v-323.3h408.3v323.2h0.1zm-76.6,40.4c-8.6-0.9-16.8,3.5-20.6,11.2l-5.6,11.4-33.4-59.6c-3.6-6.4-10.4-10.4-17.9-10.4s-14.3,4-17.9,10.4l-33.4,59.6-5.6-11.4c-3.8-7.7-12.1-12.1-20.6-11.2l-12.8,1.4 36.9-65.9c32.1,18.6 74.8,18.6 106.9,0l36.9,65.9-12.9-1.4zm-77.5-90.4c-35.8,0-64.9-28.6-64.9-63.8 0-35.2 29.1-63.8 64.9-63.8s64.9,28.6 64.9,63.8c-0.1,35.2-29.2,63.8-64.9,63.8zm174.5-313.3h-449.2c-11.3,0-20.4,9-20.4,20.1v363.3c0,11.1 9.1,20.1 20.4,20.1h138.7l-9.1,16.3c-3.7,6.6-3.3,14.6 0.9,20.8 4.2,6.2 11.7,9.6 19.2,8.8l37.7-4.1 16.6,33.5c3.3,6.7 10.2,11.1 17.8,11.3 7.8,0.3 14.7-3.8 18.4-10.4l34.5-61.6 34.5,61.6c3.6,6.4 10.5,10.4 17.9,10.4 0.2,0 0.3,0 0.5,0 7.6-0.2 14.5-4.5 17.8-11.3l16.6-33.5 37.7,4.1c7.6,0.9 15-2.6 19.2-8.8 4.2-6.2 4.6-14.3 0.9-20.8l-9.1-16.3h38.5c11.3,0 20.4-9 20.4-20.1v-363.3c5.68434e-14-11.1-9.1-20.1-20.4-20.1z" fill="#FFFFFF"/>
      <path d="m134.3,131.1h243.4c11.3,0 20.4-9 20.4-20.1s-9.1-20.1-20.4-20.1h-243.4c-11.3,0-20.4,9-20.4,20.1s9.1,20.1 20.4,20.1z" fill="#FFFFFF"/>
    </g>
  </g>
</svg>
