<svg width="43" height="28" viewBox="0 0 43 28" fill="none" xmlns="http://www.w3.org/2000/svg">
  <path d="M0.296661 11.872C1.09666 11.856 1.66466 11.712 2.00066 11.44C2.35266 11.168 2.52866 10.76 2.52866 10.216C2.52866 9.832 2.44866 9.064 2.28866 7.912C2.20866 7.416 2.13666 6.904 2.07266 6.376C2.00866 5.832 1.97666 5.352 1.97666 4.936C1.97666 3.464 2.42466 2.32 3.32066 1.504C4.23266 0.687999 5.45666 0.279999 6.99266 0.279999H8.76866V4.096H7.90466C7.39266 4.096 7.02466 4.208 6.80066 4.432C6.57666 4.656 6.46466 4.992 6.46466 5.44C6.46466 5.744 6.52866 6.456 6.65666 7.576C6.80066 9.016 6.87266 9.952 6.87266 10.384C6.87266 11.296 6.65666 12.048 6.22466 12.64C5.80866 13.232 5.16866 13.608 4.30466 13.768V13.816C5.16866 13.976 5.80866 14.352 6.22466 14.944C6.65666 15.536 6.87266 16.288 6.87266 17.2C6.87266 17.632 6.80066 18.568 6.65666 20.008C6.52866 21.128 6.46466 21.848 6.46466 22.168C6.46466 22.6 6.57666 22.928 6.80066 23.152C7.02466 23.376 7.39266 23.488 7.90466 23.488H8.76866V27.304H6.99266C5.45666 27.304 4.23266 26.896 3.32066 26.08C2.42466 25.264 1.97666 24.12 1.97666 22.648C1.97666 22.232 2.00866 21.76 2.07266 21.232C2.13666 20.688 2.20866 20.168 2.28866 19.672C2.44866 18.52 2.52866 17.76 2.52866 17.392C2.52866 16.304 1.78466 15.736 0.296661 15.688V11.872Z" fill="black"/>
  <path d="M31.3812 5.08V22H26.6772V12.664L23.4852 22H19.5492L16.3332 12.592V22H11.6292V5.08H17.3172L21.5652 16.072L25.7172 5.08H31.3812Z" fill="black"/>
  <path d="M42.6988 15.688C41.2108 15.736 40.4669 16.304 40.4669 17.392C40.4669 17.76 40.5468 18.52 40.7068 19.672C40.7868 20.168 40.8588 20.688 40.9228 21.232C40.9868 21.76 41.0188 22.232 41.0188 22.648C41.0188 24.12 40.5628 25.264 39.6508 26.08C38.7548 26.896 37.5388 27.304 36.0028 27.304H34.2268V23.488H35.0909C35.6029 23.488 35.9708 23.376 36.1948 23.152C36.4188 22.928 36.5308 22.6 36.5308 22.168C36.5308 21.848 36.4668 21.128 36.3388 20.008C36.1948 18.568 36.1228 17.632 36.1228 17.2C36.1228 16.288 36.3308 15.536 36.7468 14.944C37.1788 14.352 37.8268 13.976 38.6908 13.816V13.768C37.8268 13.608 37.1788 13.232 36.7468 12.64C36.3308 12.048 36.1228 11.296 36.1228 10.384C36.1228 9.952 36.1948 9.016 36.3388 7.576C36.4668 6.456 36.5308 5.744 36.5308 5.44C36.5308 4.992 36.4188 4.656 36.1948 4.432C35.9708 4.208 35.6029 4.096 35.0909 4.096H34.2268V0.279999H36.0028C37.5388 0.279999 38.7548 0.687999 39.6508 1.504C40.5628 2.32 41.0188 3.464 41.0188 4.936C41.0188 5.352 40.9868 5.832 40.9228 6.376C40.8588 6.904 40.7868 7.416 40.7068 7.912C40.5468 9.064 40.4669 9.832 40.4669 10.216C40.4669 10.76 40.6348 11.168 40.9708 11.44C41.3228 11.712 41.8988 11.856 42.6988 11.872V15.688Z" fill="black"/>
</svg>
