<svg width="43" height="27" viewBox="0 0 43 27" fill="none" xmlns="http://www.w3.org/2000/svg">
<path d="M0.296631 11.482C1.08904 11.4662 1.65166 11.3236 1.98447 11.0541C2.33313 10.7847 2.50746 10.3806 2.50746 9.84176C2.50746 9.4614 2.42822 8.70068 2.26974 7.55961C2.1905 7.06831 2.11918 6.56117 2.05579 6.03818C1.99239 5.49934 1.9607 5.02389 1.9607 4.61184C1.9607 3.1538 2.40445 2.02065 3.29195 1.21239C4.1953 0.40413 5.40769 0 6.92912 0H8.68827V3.7798H7.83247C7.32533 3.7798 6.96082 3.89074 6.73894 4.11262C6.51706 4.33449 6.40613 4.66731 6.40613 5.11106C6.40613 5.41217 6.46952 6.11742 6.59631 7.2268C6.73894 8.65314 6.81026 9.58026 6.81026 10.0082C6.81026 10.9115 6.59631 11.6564 6.1684 12.2428C5.75635 12.8292 5.12242 13.2016 4.26662 13.3601V13.4076C5.12242 13.5661 5.75635 13.9385 6.1684 14.5249C6.59631 15.1113 6.81026 15.8562 6.81026 16.7595C6.81026 17.1874 6.73894 18.1145 6.59631 19.5409C6.46952 20.6503 6.40613 21.3634 6.40613 21.6804C6.40613 22.1083 6.51706 22.4332 6.73894 22.6551C6.96082 22.8769 7.32533 22.9879 7.83247 22.9879H8.68827V26.7677H6.92912C5.40769 26.7677 4.1953 26.3635 3.29195 25.5553C2.40445 24.747 1.9607 23.6139 1.9607 22.1558C1.9607 21.7438 1.99239 21.2763 2.05579 20.7533C2.11918 20.2144 2.1905 19.6994 2.26974 19.2081C2.42822 18.067 2.50746 17.3142 2.50746 16.9497C2.50746 15.872 1.77052 15.3094 0.296631 15.2619V11.482Z" fill="url(#paint0_linear)"/>
<path d="M31.0863 4.75447V21.514H26.4269V12.2665L23.2652 21.514H19.3665L16.181 12.1952V21.514H11.5216V4.75447H17.1557L21.3634 15.6422L25.476 4.75447H31.0863Z" fill="url(#paint1_linear)"/>
<path d="M42.2966 15.2619C40.8227 15.3094 40.0858 15.872 40.0858 16.9497C40.0858 17.3142 40.165 18.067 40.3235 19.2081C40.4028 19.6994 40.4741 20.2144 40.5375 20.7533C40.6009 21.2763 40.6326 21.7438 40.6326 22.1558C40.6326 23.6139 40.1809 24.747 39.2775 25.5553C38.39 26.3635 37.1856 26.7677 35.6641 26.7677H33.905V22.9879H34.7608C35.2679 22.9879 35.6324 22.8769 35.8543 22.6551C36.0762 22.4332 36.1871 22.1083 36.1871 21.6804C36.1871 21.3634 36.1237 20.6503 35.997 19.5409C35.8543 18.1145 35.783 17.1874 35.783 16.7595C35.783 15.8562 35.989 15.1113 36.4011 14.5249C36.829 13.9385 37.4708 13.5661 38.3266 13.4076V13.3601C37.4708 13.2016 36.829 12.8292 36.4011 12.2428C35.989 11.6564 35.783 10.9115 35.783 10.0082C35.783 9.58026 35.8543 8.65314 35.997 7.2268C36.1237 6.11742 36.1871 5.41217 36.1871 5.11106C36.1871 4.66731 36.0762 4.33449 35.8543 4.11262C35.6324 3.89074 35.2679 3.7798 34.7608 3.7798H33.905V0H35.6641C37.1856 0 38.39 0.40413 39.2775 1.21239C40.1809 2.02065 40.6326 3.1538 40.6326 4.61184C40.6326 5.02389 40.6009 5.49934 40.5375 6.03818C40.4741 6.56117 40.4028 7.06831 40.3235 7.55961C40.165 8.70068 40.0858 9.4614 40.0858 9.84176C40.0858 10.3806 40.2522 10.7847 40.585 11.0541C40.9337 11.3236 41.5042 11.4662 42.2966 11.482V15.2619Z" fill="url(#paint2_linear)"/>
<defs>
<linearGradient id="paint0_linear" x1="8.5" y1="3.12689e-07" x2="34" y2="27" gradientUnits="userSpaceOnUse">
<stop stop-color="#C57BFF"/>
<stop offset="1" stop-color="#6877FF"/>
</linearGradient>
<linearGradient id="paint1_linear" x1="8.5" y1="3.12689e-07" x2="34" y2="27" gradientUnits="userSpaceOnUse">
<stop stop-color="#C57BFF"/>
<stop offset="1" stop-color="#6877FF"/>
</linearGradient>
<linearGradient id="paint2_linear" x1="8.5" y1="3.12689e-07" x2="34" y2="27" gradientUnits="userSpaceOnUse">
<stop stop-color="#C57BFF"/>
<stop offset="1" stop-color="#6877FF"/>
</linearGradient>
</defs>
</svg>
