<svg width="43" height="28" viewBox="0 0 43 28" fill="none" xmlns="http://www.w3.org/2000/svg">
<path d="M0.296631 11.762C1.08904 11.7462 1.65166 11.6036 1.98447 11.3341C2.33313 11.0647 2.50746 10.6606 2.50746 10.1218C2.50746 9.7414 2.42822 8.98068 2.26974 7.83961C2.1905 7.34831 2.11918 6.84117 2.05579 6.31818C1.99239 5.77934 1.9607 5.30389 1.9607 4.89184C1.9607 3.4338 2.40445 2.30065 3.29195 1.49239C4.1953 0.684129 5.40769 0.279999 6.92912 0.279999H8.68827V4.0598H7.83247C7.32533 4.0598 6.96082 4.17074 6.73894 4.39262C6.51706 4.61449 6.40613 4.9473 6.40613 5.39106C6.40613 5.69217 6.46952 6.39742 6.59631 7.5068C6.73894 8.93314 6.81026 9.86026 6.81026 10.2882C6.81026 11.1915 6.59631 11.9364 6.1684 12.5228C5.75635 13.1091 5.12242 13.4816 4.26662 13.6401V13.6876C5.12242 13.8461 5.75635 14.2185 6.1684 14.8049C6.59631 15.3913 6.81026 16.1362 6.81026 17.0395C6.81026 17.4674 6.73894 18.3945 6.59631 19.8209C6.46952 20.9303 6.40613 21.6434 6.40613 21.9604C6.40613 22.3883 6.51706 22.7132 6.73894 22.9351C6.96082 23.1569 7.32533 23.2679 7.83247 23.2679H8.68827V27.0477H6.92912C5.40769 27.0477 4.1953 26.6435 3.29195 25.8353C2.40445 25.027 1.9607 23.8939 1.9607 22.4358C1.9607 22.0238 1.99239 21.5563 2.05579 21.0333C2.11918 20.4944 2.1905 19.9794 2.26974 19.4881C2.42822 18.347 2.50746 17.5942 2.50746 17.2297C2.50746 16.152 1.77052 15.5894 0.296631 15.5419V11.762Z" fill="black"/>
<path d="M31.0863 5.03447V21.794H26.4269V12.5465L23.2652 21.794H19.3665L16.181 12.4752V21.794H11.5216V5.03447H17.1557L21.3634 15.9222L25.476 5.03447H31.0863Z" fill="black"/>
<path d="M42.2966 15.5419C40.8227 15.5894 40.0858 16.152 40.0858 17.2297C40.0858 17.5942 40.165 18.347 40.3235 19.4881C40.4028 19.9794 40.4741 20.4944 40.5375 21.0333C40.6009 21.5563 40.6326 22.0238 40.6326 22.4358C40.6326 23.8939 40.1809 25.027 39.2775 25.8353C38.39 26.6435 37.1856 27.0477 35.6641 27.0477H33.905V23.2679H34.7608C35.2679 23.2679 35.6324 23.1569 35.8543 22.9351C36.0762 22.7132 36.1871 22.3883 36.1871 21.9604C36.1871 21.6434 36.1237 20.9303 35.997 19.8209C35.8543 18.3945 35.783 17.4674 35.783 17.0395C35.783 16.1362 35.989 15.3913 36.4011 14.8049C36.829 14.2185 37.4708 13.8461 38.3266 13.6876V13.6401C37.4708 13.4816 36.829 13.1091 36.4011 12.5228C35.989 11.9364 35.783 11.1915 35.783 10.2882C35.783 9.86026 35.8543 8.93314 35.997 7.5068C36.1237 6.39742 36.1871 5.69217 36.1871 5.39106C36.1871 4.9473 36.0762 4.61449 35.8543 4.39262C35.6324 4.17074 35.2679 4.0598 34.7608 4.0598H33.905V0.279999H35.6641C37.1856 0.279999 38.39 0.684129 39.2775 1.49239C40.1809 2.30065 40.6326 3.4338 40.6326 4.89184C40.6326 5.30389 40.6009 5.77934 40.5375 6.31818C40.4741 6.84117 40.4028 7.34831 40.3235 7.83961C40.165 8.98068 40.0858 9.7414 40.0858 10.1218C40.0858 10.6606 40.2522 11.0647 40.585 11.3341C40.9337 11.6036 41.5042 11.7462 42.2966 11.762V15.5419Z" fill="black"/>
</svg>
