<svg xmlns="http://www.w3.org/2000/svg" viewBox="0 0 1000 559.72"><defs><style>.cls-1{fill:#eed39a;}.cls-2{fill:#b99c53;}.cls-3{fill:#1d1d1b;}</style></defs><title>Logo Hotel Classic</title><g id="Capa_2" data-name="Capa 2"><g id="Capa_1-2" data-name="Capa 1"><path class="cls-1" d="M284.35,370.56a149,149,0,0,0,19,28.44c18.35,21.74,49.12,46.38,99,57.94a183.74,183.74,0,0,0,41,4.4c23.11,0,47.32-3.83,68-11.85s37.88-20.24,47-36.94a79.83,79.83,0,0,0,9.87-38.24c0-10.31-2.14-18.94-4.86-23.95-4.84-9-14.36-13.47-17.2-14.64a73.7,73.7,0,0,1-15.58,26.74C518.24,376.26,496.83,390,461.14,390c-1.38,0-2.78,0-4.2-.07-37.45-1.1-61.92-12.2-77-23.07-13.17-9.47-19.19-18.75-20.55-21L279.44,359.4c.2.55.48,1.33.88,2.33.84,2.1,2.15,5.13,4,8.84"/><path class="cls-1" d="M369.56,153.32a18.32,18.32,0,0,0,9.53,2.38,15.21,15.21,0,0,0,6.33-1.11,5.45,5.45,0,0,0,2.13-2,8.83,8.83,0,0,0,1-2.86c.43-2.12.41-4.56.75-6.72a7,7,0,0,1,1.61-3.82,4.58,4.58,0,0,1,2.19-1.25,12.76,12.76,0,0,1,3.22-.42c3.8,0,7.21,1.83,10.18,4.86a44.42,44.42,0,0,1,7.95,12.31c4.37,9.36,11.3,22.59,22.74,33.8s27.37,20.41,49.88,21.81c.78,0,1.57.07,2.37.07,11.67,0,26.75-5,38.85-15.11a57.78,57.78,0,0,0,21.23-45.56A76,76,0,0,0,548,134.51c-5.29-26-19.49-44.73-38.86-57.07s-43.92-18.23-69.81-18.23a188.87,188.87,0,0,0-55.41,8.56c-40.17,12.41-67.25,39.57-84.72,65a211,211,0,0,0-26.85,54.16h0c3.57.14,15.3.61,21.14,1.14s18.18,2.47,21.46,3c1-7,9-56.55,40.85-87.42a84.32,84.32,0,0,1,44.33-23.07,137.74,137.74,0,0,1,24.48-2.37c20.21,0,34.44,5.63,43.6,13.9a39.46,39.46,0,0,1,13.22,29.5c0,1.21-.06,2.43-.17,3.62-1.08,11.86-5.67,19-11,23.19a25.39,25.39,0,0,1-15.26,5.26,13.82,13.82,0,0,1-3.2-.32c-2.62-.65-5.57-2.47-8.87-5s-6.92-5.72-10.73-9.18c-7.63-6.91-16.07-14.81-24-20-5.32-3.45-10.42-5.65-14.84-5.64H393c-7.27.11-14.38,4.34-19.66,10.27s-8.67,13.52-8.66,20.09v.43c.12,4.51,2.09,7.22,4.84,9"/><path class="cls-2" d="M281.44,206.74c-3.49-2.76-6.84-5.65-11.11-7.65.48-2.79-.66-4-.69-6.26,16-1,34.91,1.21,47.93,5.57-1.34,6.3-6.24,9-11.81,11.11v64.59c0,7.27-1.48,16.33,0,20.85,1.59,4.85,8.51,4.93,8.34,9.72-.17,4.63-17.44,15.2-20.15,17.37-7.66,6.13-14.21,10.28-18.75,18.05,5.11,6.57,14.24,1.24,19.45-1.39,17.29-8.7,33.53-23.17,51.4-30.56-1.89-11.6-15.65-18.49-14.59-31.26.53-6.3,5.45-7.59,5.56-15.29,4.06,3.75,11.28,4.61,12.5,9.74,1.13,4.72-2.55,9.84-2.08,15.28,1.39,16.55,24.95,30.7,13.89,45.84-1.74,2.39-8,6.66-11.8,8.33-14,6.24-35.32,7.68-54.88,10.43C283,352.85,273,356.68,262,352.61c-6.11-12.33,2.11-17.8,8.33-26.39,3.4-4.68,8.77-11.24,10.42-16,2.22-6.4,0-15.47,0-24.31l.69-79.18"/><path class="cls-2" d="M714.19,222v68.77c0,7.87-1.51,17.18,0,22.93.94,3.59,6.93,6.72,7.64,10.41,2.19,11.45-10,30.23-20.84,31.26-4.7.45-13.21-2.36-20.84-4.16-18.12-4.31-34.48-6.5-30.57-32,1.71-5.45,6.9-9,9.72-13.9,1.91-3.31,1.33-8.62,5.56-10.42,7.22,1,6.19,15.95,8.34,24.31,4.9,3.93,13.71,1.23,18.06-1.39.8-22.15.67-51.65.7-82.66-2-4.47-7.71-5.26-8.34-11.11,2.22-4.06,6.17-6.52,11.12-8.34,4.5-1.65,11.47-.6,13.19-5.56-.4-4.67-8.67-2.77-13.89-2.77-9.87,0-20-1.16-22.92,4.86,1,5.67,8.58,9.32,9,16s-4.46,11.91-11.11,14.59a17.79,17.79,0,0,1-9-9c-1.54-2,3.68-2,2.08-6.26-5-5.41-16.36-14.67-6.95-23.61,2-1.86,8-4.27,13.2-4.87,16.74-1.89,42.76-1.67,52.09-2.78,5.56,1.25,10.12,4.79,10.42,9,.64,8.89-12.84,11-16.66,16.67"/><path class="cls-2" d="M407.86,224.11c-5.32,12.28-12.1,23.08-14.58,38.2,10.52-3.84,17.16-11.55,27.78-15.28-3.51-7.14-4.85-16.45-9-22.92Zm33.34,21.53c10.34,25.79,15.75,56.5,28.48,79.89-15.17-.11-32.62,3.94-47.24,1.38.26-6.22,5-7.92,8.34-11.11,1.33-20.84-4.54-40.32-9-57.65-17.59,9.63-44.14,17.27-36.81,47.24a14.89,14.89,0,0,0,8.34,0c.9,18-2.3,34.87-20.84,31.26-9.55-8.16-7.35-27.2-4.17-41.68,1.95-8.84,5.81-19.85,9-29.17C380,258.06,387.56,243.35,387,238s-12-12.7-14.59-18.06c-5.15-10.57.17-15.63,14.59-14.59,13.54,1,38.51,4,54.88,6.24,9.7,1.31,20,3.34,20.14,13.2.17,12-14.79,15.2-20.84,20.83"/><path class="cls-2" d="M641.25,209.52c-.15,11.43-8.58,14.57-13.89,20.83a26.9,26.9,0,0,1,2.08,6.94c-8.19,2.51-8.5-4.81-12.5-8.33.87-3.53,1.9-6.89,2.78-10.41a91.55,91.55,0,0,0-36.81,0c-2.4,6.44,2.45,11,6.25,13.19,11.28,6.48,24.57,9.22,34.73,17.37C637,259.59,648.36,278,645.42,306.77c-2.25,22-16.26,34.88-42.37,29.87-23.57-4.53-46-11.27-43.07-41.68,1.4-14.56,13.44-28,27.79-27.09,14.64.93,15.09,17.25,27.78,14.59-1.72,5-2.49,10.93-5.56,14.59-9,3.06-24.12-13.88-27.09-1.4-1.12,4.75,4,10.55,6.25,11.81,9,5.11,28.32,3.8,33.34-4.17,9.24-14.65-1.57-33.86-10.42-39.59-14-9.09-36.55-13.2-45.15-27.09-4.37-7.06-6.48-19.77,2.09-24.31,4-2.11,15-3.3,22.23-4.17,10.89-1.3,22.61-1.43,32-2.08,7.2-.51,13.57-.88,18.06,3.48"/><path class="cls-2" d="M472.46,236.61c-2.74-8.18-.82-17.94,8.33-20.15,2-.48,5.71.18,9.72,0,13.53-.6,41.6-3.36,50.71-1.39,2.83.61,4.75,2.77,6.25,3.48,2.43,10.26-7.12,12.79-12.5,17.37-1.13,3.44,2.42,2.2,2.08,4.86-5.15,3-12.41-.36-13.2-5.56-.58-3.83,2.75-4.95,2.79-9-6.14-.73-25.74-1.44-36.12,0,1.88,11.73,14.73,13,22.93,16.68,17.11,7.7,37.21,19.32,39.59,42.37,2.27,21.9-9.64,40.24-29.87,41.67-7.8.55-34.83,1.29-42.37-2.78-9.79-5.26-15.3-26.74-10.42-40.28,3.34-9.27,13.79-17,23.62-16.67,11.33.32,14.61,7.32,22.91,13.2,1.85,0,4.1.38,4.17-1.39.7,2.8-1.54,8.64-2.78,11.81-9.24,5-16.43-5.67-26.39-2.09-4.84,10,9.27,15.07,19.45,14.59,16.78-.79,23.91-13.36,19.45-27.09Z"/><path class="cls-2" d="M999.67,270.65c-3.65-24.1-38.57-42.52-62.52-52.79-28.69-12.31-64.23-22-93.77-29.17-11-2.65-25.66-5.17-34-5.56-78.62-17.55-171.25-23.69-257.7-26.4-.25-.54-.46-1.1-.66-1.66a59.28,59.28,0,0,1-21.6,41.48C517,206.9,501.6,212,489.47,212c-.84,0-1.67,0-2.48-.07-22.93-1.42-39.29-10.86-51-22.3-11.1-10.88-18-23.55-22.42-32.88-30.22,1.54-60,3.52-89.8,5.49,0-.24,0-.46-.07-.69A186.06,186.06,0,0,0,316.6,191c0,.28-.07.49-.09.67,24.49,4.84,48.92,7.77,74,11.57,19.56,3,40.13,6.79,58.35,8.33,29.75,2.53,61.7.52,91.69-1.39,63.1-4,120.18-16.57,182-19.45,18.82-.87,38.93-4.25,55.57,2.78C741,207.37,717.78,253.9,726.69,302.6c5.67,30.94,27.69,50.6,55.57,59.74-28.28,5.39-58.08,2.1-82.66-2.77-45.77-9.07-91.57-18.79-136.84-27.09-7.3-1.34-14.69-3.13-22.23-3.47-60.76-2.78-120.79,2-177.13,14.59,15.7,29.13,60.3,45.57,103.49,43.06,40.71-2.37,67.87-23.36,77.1-56.26,10.57,5.9,23,11.49,26.4,25,2.85,11.17.77,23.64,0,37.51,104.32-4.58,214.8-13.7,307.71-39.59,35.3-9.84,77.09-23.57,100.72-42.37,11.11-8.85,23.35-23.69,20.83-40.29m-40.28,9.72c-1.66,17.07-18.61,30.74-33.34,38.91-24.29,13.45-50.35,21.21-78.49,28.47.57-7.82,9.71-15.21,8.33-25-1-7-7.56-10.54-11.11-16-5.25,15.64-23,24.18-45.85,21.53-36.12-4.19-56-34.91-51.39-75.71,3-26.76,19.77-54.09,52.09-49.32,8.52,1.26,23.91,10.39,16.67,22.23-1,1.71-5.14,4.6-10.41,4.16-9.66-.79-11.93-17.25-27.09-15.29-3.43.45-9.4,3.31-10.42,8.34-1.34,6.59,3.15,13.6,9,13.2,6.16-.43,3.9-4.95,7-9,3.67,8.6,6.66,17.88,11.11,25.7,21.81,20.52,56.41,2.15,52.09-29.87-1-7.76-5.22-11.8-9-18.07,36.36,6.28,70.3,20.84,97.24,41,10,7.46,25.15,19,23.62,34.74"/><path class="cls-2" d="M277.52,359h0l0-.07c-14.78,1.26-37.59,7.15-53,2.73,4.57-6.27,14-6.35,20.84-10.41a50.15,50.15,0,0,0,9.73-8.34c7.74-8.52,12.69-33.28-3.47-36.81-15.28,14.46-26.33,25.18-54.18,20.14-32.09-5.79-55.26-38.54-50-78.5,2.92-22.23,19.33-43.84,43.06-46.54,11.3-1.29,22.68,1.32,28.48,9,6.43,8.58-1.18,17.9-9,18.07-14.2.3-11-15.95-27.09-16-18.76,0-17.82,28.16,2.08,20.15.43-1.89-.88-5.52.7-6.25,2-.57,1.8,1,3.47.7,2.88,17,10.23,30.43,26.4,32.64,16.88,2.31,31.33-7.82,36.12-19.45,9.51-23.12-11.47-42.53-28.48-50.7,15.79-1.92,32.2.18,47.4-2.31a171.33,171.33,0,0,1,7.2-19.12c-55.24,5.71-111.9,15.24-161.57,29.08C80.44,207,33.8,224.24,11.93,247c-4.2,4.37-8.61,10.69-10.42,16-4.89,14.26,3.07,28.46,9.72,36.12,20.82,24,63.26,37.74,96.55,47.93,19.21,7,42.78,13.23,63.9,16A694.94,694.94,0,0,0,288.2,380.89C280.38,368.09,277.54,359,277.52,359M47.36,296.35c-7.54-9.27-12-28.86-2.08-40.29,25.36-26.73,63.86-40.33,106.27-50-17.1,20.19-33.83,53.89-27.09,91.69,3.69,20.64,15.37,34.91,27.79,47.23C118.82,337.2,68,321.7,47.36,296.35"/><path class="cls-2" d="M634,407.66v16.57h-1.3a17.5,17.5,0,0,0-2.25-7.52,10.65,10.65,0,0,0-4.77-4.56,14.3,14.3,0,0,0-3-1.23,11.87,11.87,0,0,0-3.22-.43,8.37,8.37,0,0,0-6.08,2.31,6.59,6.59,0,0,0-2.39,5,7,7,0,0,0,1.52,4.06q2,2.46,10.42,7a56.13,56.13,0,0,1,5.72,3.18,28.22,28.22,0,0,1,3.47,2.38,12.64,12.64,0,0,1,3.69,4.45,12.15,12.15,0,0,1,1.37,5.54,12.44,12.44,0,0,1-4.2,9.37,15.21,15.21,0,0,1-10.86,3.95c-.53,0-1.08,0-1.66,0a20.14,20.14,0,0,1-2.24-.25l-4.56-1.3a20.19,20.19,0,0,0-4.34-1.08,2.11,2.11,0,0,0-1.45.51,7.71,7.71,0,0,0-.72,2.17h-1.31V441.3h1.31a23,23,0,0,0,2.35,7.63,12.61,12.61,0,0,0,4.81,4.37,15.62,15.62,0,0,0,7.09,1.66,10,10,0,0,0,6.95-2.35,7.15,7.15,0,0,0,2.61-5.46,6.36,6.36,0,0,0-1-3.48,11,11,0,0,0-3-3.47q-.8-.66-7.53-4.49l-5.21-3-3.55-2.46a16,16,0,0,1-3.91-4.56,11.16,11.16,0,0,1-1.3-5.43,12.78,12.78,0,0,1,8.47-11.65,16.53,16.53,0,0,1,5.5-.94,17.21,17.21,0,0,1,3.58.36,25.17,25.17,0,0,1,2.46.62,17.39,17.39,0,0,1,2.06.9l2.82.87a2,2,0,0,0,1.37-.51c.39-.24.72-1,1-2.24Z"/><path class="cls-2" d="M677.38,449l-2.17,3.33q-4,5.29-7.57,5.28a3.64,3.64,0,0,1-2.74-1.23l-.44-.72-.14-.58-2.53,1.27a13.2,13.2,0,0,1-5,1.27,12,12,0,0,1-4.55-.78,10.19,10.19,0,0,1-3.18-2v10.35a8,8,0,0,0,.86,4.27,3.26,3.26,0,0,0,2.37,1.08,3.63,3.63,0,0,0,2.15-.66,6,6,0,0,0,1.72-2.3h1.36a10,10,0,0,1-3.44,5.26,7.78,7.78,0,0,1-4.66,1.75,6.75,6.75,0,0,1-3.08-.79,5.53,5.53,0,0,1-2.42-2.54,14.94,14.94,0,0,1-.72-5.3V423.36h5.86v7.53a18.31,18.31,0,0,1,5-6,10.07,10.07,0,0,1,5.27-1.52,10.74,10.74,0,0,1,8.15,3.76,18.56,18.56,0,0,1,4,12.16,39.87,39.87,0,0,1-.47,6.44c-.32,1.88-.79,3.09-1.41,3.62l.21,2a1.77,1.77,0,0,0,.56,1.38,4.18,4.18,0,0,0,1.11.36l.92-.22a18.54,18.54,0,0,0,2.83-2.6l2.12-2.61Zm-12.15-6.41q0-7.14-3.24-11.4a6.83,6.83,0,0,0-5.33-2.74,8.23,8.23,0,0,0-3.39.87,24.4,24.4,0,0,0-4.18,3.82v12.05a26.19,26.19,0,0,0,.4,5.55,6.18,6.18,0,0,0,2.34,3.14,7.49,7.49,0,0,0,4.83,1.55,6.77,6.77,0,0,0,5.69-2.74q2.88-3.53,2.88-10.1"/><path class="cls-2" d="M711.6,449l-2.18,3.33q-4,5.28-7.64,5.28a3.68,3.68,0,0,1-2.76-1.23,6.34,6.34,0,0,1-1-4,11.55,11.55,0,0,1-2.31,2.64l-2.38,1.57a10.77,10.77,0,0,1-4.83,1.07q-5.19,0-9.2-4.51a16.42,16.42,0,0,1-4-11.3,20.75,20.75,0,0,1,4.34-12.67A13.54,13.54,0,0,1,691,423.28a9.5,9.5,0,0,1,7,2.75v-2.75h5.86V449a16.34,16.34,0,0,0,.15,2.61,1.63,1.63,0,0,0,.54,1.08,2.77,2.77,0,0,0,1,.43l.94-.22,1.09-.72,1.81-1.88,2.17-2.61ZM698,450.5V433.83a11.29,11.29,0,0,0-1.19-4.26,8.16,8.16,0,0,0-2.86-3.1,7,7,0,0,0-3.4-1,7.57,7.57,0,0,0-5.57,2.82Q681.79,432,681.79,439q0,7.15,3.11,10.93t6.88,3.79q3.1,0,6.22-3.18"/><path class="cls-2" d="M649.74,521.78H636.93l-16.21-22.43h-5v22.43H602.06v-1.31h1.81a4.83,4.83,0,0,0,4.34-2q.73-1.08.72-5.21v-31q0-4.48-.94-5.64a5.4,5.4,0,0,0-4.12-1.52h-1.81v-1.3h17.44q7.82,0,11.29,1.16A11.41,11.41,0,0,1,636.9,479a10.89,10.89,0,0,1,2.57,7.2,11,11,0,0,1-2.82,7.63q-2.82,3.15-9,4.67l9.84,13.74,1.23,1.6c.77,1,1.42,1.74,2,2.32a14,14,0,0,0,2.67,2.39,14.75,14.75,0,0,0,6.36,2ZM631.5,486.69a9.79,9.79,0,0,0-10.28-10.13,33.4,33.4,0,0,0-5.5.65v20h2q6.73,0,10.27-2.93a9.36,9.36,0,0,0,3.55-7.56"/><path class="cls-2" d="M682.95,514.18l-2.17,3.33a18.06,18.06,0,0,1-3.91,3.76,13,13,0,0,1-4.05,1.81,17.09,17.09,0,0,1-2.17.44,19.33,19.33,0,0,1-2.53.14,31.32,31.32,0,0,1-4.37-.43,21.28,21.28,0,0,1-5.47-1.59,13,13,0,0,1-4.56-3.4q-4.13-4.56-4.12-12.23,0-8.32,4.27-13a14,14,0,0,1,10.71-4.63,12.1,12.1,0,0,1,8.9,3.62,15,15,0,0,1,1.59,2.28,4.9,4.9,0,0,1,.72,2.42,3.84,3.84,0,0,1-1.37,2.82l-.94,1a5.35,5.35,0,0,1-3.26,1H654.58a20.25,20.25,0,0,0,1.09,6.44,26.52,26.52,0,0,0,2.46,5.06,28.51,28.51,0,0,0,3.55,3.91,14.08,14.08,0,0,0,4.85,2.68l2.17.65,2.1.15a11.13,11.13,0,0,0,3.15-.44,14.08,14.08,0,0,0,3.58-1.81l1.3-.87a13.53,13.53,0,0,0,1.05-.87,7.43,7.43,0,0,0,.9-1l2.17-2.61Zm-14-19a8.41,8.41,0,0,0-2.63-3.11,6.94,6.94,0,0,0-3.73-1.08,7.3,7.3,0,0,0-5.26,2.31,9.81,9.81,0,0,0-2.78,6.22h11.86a2.79,2.79,0,0,0,2.1-.68,2.68,2.68,0,0,0,.66-1.92v-1.16Z"/><path class="cls-2" d="M710.52,514.11l-2.39,3.33a15.47,15.47,0,0,1-4.56,3.83l-3.25,1.45a37.71,37.71,0,0,1-4.27,1.37c-.63.14-1.28.26-2,.36a14.34,14.34,0,0,1-2,.15,9.13,9.13,0,0,1-6.15-2.39,7.88,7.88,0,0,1-1.74-2.53,10.6,10.6,0,0,1-.5-3,2.87,2.87,0,0,1,.87-2,3.63,3.63,0,0,1,2.1-1.16,3,3,0,0,1,1.88.87,3.82,3.82,0,0,1,.51,2.26l-.22,2.11-.51,1.75a2.55,2.55,0,0,0,.87,1.75,5.65,5.65,0,0,0,3.33,1,6,6,0,0,0,4.27-1.81,8.26,8.26,0,0,0,1.52-1.82,5.52,5.52,0,0,0,.65-2.18l-.22-2.1a4.64,4.64,0,0,0-.65-1.82,16.44,16.44,0,0,0-2.32-2.9,26.28,26.28,0,0,0-3.62-3.19l-4.56-3.7a16.7,16.7,0,0,1-2.54-3.12l.29,3.55v1q0,1.16-.07,2.28a24.48,24.48,0,0,1-.33,2.61,9.57,9.57,0,0,1-1.7,3.58l-2.82,3.83.22-2.46a6.26,6.26,0,0,0,1.81-2.82c.24-.77.42-1.37.54-1.81a8.24,8.24,0,0,0,.25-1.45v-3.83l-.37-2.75-1.34-5.28c-.2-.82-.37-1.67-.52-2.57a13.6,13.6,0,0,1-.22-2.14,12.55,12.55,0,0,1,.58-4,22.2,22.2,0,0,1,.91-2.13,24.55,24.55,0,0,1,1.41-2.5l1.66.58a5.63,5.63,0,0,0-1.09,3.47l-.07.87a7,7,0,0,0,1.16,3.69,24.26,24.26,0,0,0,3.26,4.05q1,1,2.46,2.32,1.08.95,2.53,2.17l2.75,2.32,2.53,2.31,1.45,1.88,1.73,2.82a14.84,14.84,0,0,1,.72,4.2,3.76,3.76,0,0,1-.15,1.16l.07,1a2.67,2.67,0,0,0,.58,1.23,3.6,3.6,0,0,0,1,.36l.94-.22,1.44-1.15,1.67-1.45,2.17-2.61Z"/><path class="cls-2" d="M711.46,520.77a3.82,3.82,0,0,1-1.08-1.74,11,11,0,0,1-.22-2.53V488.27H705v-1.16a16.65,16.65,0,0,0,3.84-2.64,19.06,19.06,0,0,0,3.7-4.38l2.23-4.92h1.07v11.07h5.28l-1.44,2h-3.76l-.07,8.32v20.26a1.46,1.46,0,0,0,.51,1,4.12,4.12,0,0,0,1.53.36l3.06-.65,1.31-.66a8.26,8.26,0,0,0,1.61-1.52l2.19-2.61v1.3l-2.17,3.77a10.85,10.85,0,0,1-3.77,3,9.56,9.56,0,0,1-4.2,1.27l-2.6-.21a4,4,0,0,1-1.88-1.16"/><path class="cls-2" d="M760.29,514.11l-2.18,3.33q-4,5.28-7.64,5.28a3.68,3.68,0,0,1-2.76-1.23,6.34,6.34,0,0,1-1-4,11.55,11.55,0,0,1-2.31,2.64L742,521.65a10.77,10.77,0,0,1-4.83,1.07q-5.19,0-9.2-4.51a16.42,16.42,0,0,1-4-11.3,20.75,20.75,0,0,1,4.34-12.67,13.54,13.54,0,0,1,11.36-5.81,9.5,9.5,0,0,1,7,2.75v-2.75h5.86v25.69a16.34,16.34,0,0,0,.15,2.61,1.63,1.63,0,0,0,.54,1.08,2.77,2.77,0,0,0,1,.43l.94-.22,1.09-.72,1.81-1.88,2.17-2.61Zm-13.6,1.53V499a11.29,11.29,0,0,0-1.19-4.26,8.16,8.16,0,0,0-2.86-3.1,7,7,0,0,0-3.4-1,7.57,7.57,0,0,0-5.57,2.82q-3.19,3.75-3.18,10.68,0,7.15,3.11,10.93t6.88,3.79q3.1,0,6.22-3.18"/><path class="cls-2" d="M792.42,513.17l-2.2,4.27q-4,5.29-7.68,5.28a3.71,3.71,0,0,1-2.78-1.23,3.92,3.92,0,0,1-.66-1.45v-3.33l-2.61,2.07a29,29,0,0,1-4,2.86l-2,.79-2.39.29a7.38,7.38,0,0,1-4.52-1.48,8.92,8.92,0,0,1-3-4.15,29.11,29.11,0,0,1-.73-7V488.49h5.86v22.57q0,4.41,1.59,5.93a5.65,5.65,0,0,0,1.67,1.08,5.38,5.38,0,0,0,2.1.36,8,8,0,0,0,3.4-1,17.27,17.27,0,0,0,4.63-3.62v-25h5.79l-.07,8.18v19.83a1.45,1.45,0,0,0,.53,1,3.86,3.86,0,0,0,1.06.36l.94-.22a19.39,19.39,0,0,0,2.89-2.6l2.17-3.55Z"/><path class="cls-2" d="M816.3,514.11,814,517.58l-1.73,1.88a13.56,13.56,0,0,1-3.47,2.32,11.91,11.91,0,0,1-1.7.58,8.75,8.75,0,0,1-2.42.36,11.83,11.83,0,0,1-3.08-.47,12.11,12.11,0,0,1-3.36-1.56l-2.82-2.61a14.07,14.07,0,0,1-3-5.68,23,23,0,0,1-1.16-6.76V488.49H797v7.24q4-7.24,8.27-7.24a4.38,4.38,0,0,1,3.24,1.23,3.43,3.43,0,0,1,1.22,2.67,3.2,3.2,0,0,1-.94,2.28,2.91,2.91,0,0,1-2.16,1,4.24,4.24,0,0,1-2.66-1.12,6.2,6.2,0,0,0-2.3-1.34,2,2,0,0,0-1.37.73,17.12,17.12,0,0,0-3.31,4.77v3.91a18.82,18.82,0,0,0,2.74,10.28l1.08,1.38a8.08,8.08,0,0,0,1.87,2,13.94,13.94,0,0,0,2.45,1.52,7.85,7.85,0,0,0,3.1.72,5.45,5.45,0,0,0,1.87-.29l1.59-.87a8.81,8.81,0,0,0,1.94-1.81l2.6-2.82Z"/><path class="cls-2" d="M850.3,514.11l-2.18,3.33q-4,5.28-7.64,5.28a3.68,3.68,0,0,1-2.76-1.23,6.34,6.34,0,0,1-1-4,11.55,11.55,0,0,1-2.31,2.64L832,521.65a10.77,10.77,0,0,1-4.83,1.07q-5.19,0-9.2-4.51a16.42,16.42,0,0,1-4-11.3,20.75,20.75,0,0,1,4.34-12.67,13.54,13.54,0,0,1,11.36-5.81,9.5,9.5,0,0,1,7,2.75v-2.75h5.86v25.69a16.34,16.34,0,0,0,.15,2.61,1.63,1.63,0,0,0,.54,1.08,2.77,2.77,0,0,0,1,.43l.94-.22,1.09-.72,1.81-1.88,2.17-2.61Zm-13.6,1.53V499a11.29,11.29,0,0,0-1.19-4.26,8.16,8.16,0,0,0-2.86-3.1,7,7,0,0,0-3.4-1,7.57,7.57,0,0,0-5.57,2.82q-3.19,3.75-3.18,10.68,0,7.15,3.11,10.93t6.88,3.79q3.1,0,6.22-3.18"/><path class="cls-2" d="M883.37,514.25l-2.17,3.33q-4,5.28-7.6,5.28a3.65,3.65,0,0,1-2.75-1.23,7.9,7.9,0,0,1-.73-2.32l-.29-1.73v-17q0-3.9-1.16-5.71a5,5,0,0,0-4.34-2.25,7.35,7.35,0,0,0-3.76,1,16.39,16.39,0,0,0-4.56,3.48v19.68a1.79,1.79,0,0,0,.65,1.09,3.74,3.74,0,0,0,1,.36l.94-.22a19.06,19.06,0,0,0,2.9-2.6v2.06q-4,5.39-7.6,5.39a3.64,3.64,0,0,1-2.75-1.24,7.79,7.79,0,0,1-.73-2.26l-.29-1.67V488.49H856v6.87l4.2-4.05,1.44-1.16,2-.94a10.52,10.52,0,0,1,3.62-.72,8.59,8.59,0,0,1,5.28,1.73,6.88,6.88,0,0,1,1.73,2.1,12.51,12.51,0,0,1,1.16,3l.44,3.76v17.51a1.84,1.84,0,0,0,.5,1.37,3.55,3.55,0,0,0,1,.36l.94-.22,2.9-2.67,2.17-2.53Z"/><path class="cls-2" d="M884.31,520.77a3.86,3.86,0,0,1-1.08-1.74,11,11,0,0,1-.22-2.53V488.27h-5.14v-1.16a16.66,16.66,0,0,0,3.85-2.64,19.16,19.16,0,0,0,3.7-4.38l2.23-4.92h1.08v11.07H894l-1.45,2H888.8l-.07,8.32v20.26a1.47,1.47,0,0,0,.51,1,4.12,4.12,0,0,0,1.53.36l3.06-.65,1.31-.66a8.56,8.56,0,0,0,1.61-1.52l2.19-2.61v1.3l-2.17,3.77a10.78,10.78,0,0,1-3.76,3,9.58,9.58,0,0,1-4.2,1.27l-2.61-.21a4,4,0,0,1-1.88-1.16"/><path d="M657.3,110.09l-2.38,3.68a19.16,19.16,0,0,1-4.53,4.24,9,9,0,0,1-4.69,1.44,4,4,0,0,1-3-1.35l-.64-1a9.62,9.62,0,0,1-.48-3.42V93.08H617.19v25.34h-7.47V75.21q0-4.13-.55-5.32a2.6,2.6,0,0,0-1.59-1.67,7,7,0,0,0-3.49-1h-1.91V65.84h15V90.22h24.38V65.84h15v1.43h-1.91a6.84,6.84,0,0,0-3.5.87A3.89,3.89,0,0,0,649.43,70a22.33,22.33,0,0,0-.4,5.16v37.41a2,2,0,0,0,.56,1.51,3.73,3.73,0,0,0,1.11.4l1-.24a21.28,21.28,0,0,0,3.18-2.86l2.38-2.78Z"/><path d="M709.09,91.81q0,11.84-7.59,19.82A25.24,25.24,0,0,1,665,112q-7.46-7.63-7.46-20t8.58-20.49a25.35,25.35,0,0,1,17.71-6.83,23.87,23.87,0,0,1,17.75,7.78,26.84,26.84,0,0,1,7.51,19.38m-8.9,1q0-13.58-5.32-20.1A14.51,14.51,0,0,0,683,67.43a14.14,14.14,0,0,0-11.28,5.24q-5.33,6.52-5.32,19.14t5.48,19.78a13.64,13.64,0,0,0,11.2,5.24,15.89,15.89,0,0,0,6.83-1.35,16.25,16.25,0,0,0,5.4-4.37q4.85-6,4.85-18.27"/><path d="M732.67,118.42V69.09H726.4a16,16,0,0,0-5.48.64,7,7,0,0,0-3.26,2.78A14.24,14.24,0,0,0,716,78.15h-1.51l.64-12.31h43.29v3.26H740.14v49.33Z"/><path d="M807.34,105.23l-4.53,13.19h-33V75q0-5-1-6.2a6.41,6.41,0,0,0-4.69-1.51H762.3V65.84h40.51l.55,11.52h-1.51Q801,72.91,800,71.63a6.52,6.52,0,0,0-2.94-2.38,17.77,17.77,0,0,0-5.4-.56H777.23V89.51h21.29v10.64H797q-.47-4.05-1.11-5.08a4.39,4.39,0,0,0-2.35-2,12,12,0,0,0-4.8-.8H777.23v17.4a19.59,19.59,0,0,0,.24,4.21,2.46,2.46,0,0,0,1,1.15,6.3,6.3,0,0,0,3.1.52h8.89a24.65,24.65,0,0,0,6.4-.6,9.4,9.4,0,0,0,3.93-2.5c.58-.58,1-1,1.27-1.35s.66-.87,1.19-1.67l2.46-4.21Z"/><path d="M855.95,104.12l-4.45,14.3H810.75V117h2q3.33,0,4.76-2.15.79-1.35.79-5.8V75.13q0-4.92-1-6.2a6,6,0,0,0-4.53-1.67h-2V65.84h15V109a10.65,10.65,0,0,0,.51,4.25,3.12,3.12,0,0,0,1.55,1.35q1,.44,6,.44h3.81q6.35,0,8.65-.91a11.64,11.64,0,0,0,4.33-3.18,25.29,25.29,0,0,0,4-7.11Z"/><polygon class="cls-3" points="780.77 0 785.19 13.39 799.29 13.45 787.92 21.8 792.22 35.23 780.77 26.99 769.33 35.23 773.62 21.8 762.25 13.45 776.35 13.39 780.77 0"/><polygon class="cls-3" points="729.26 0 733.68 13.39 747.78 13.45 736.42 21.8 740.71 35.23 729.26 26.99 717.82 35.23 722.11 21.8 710.74 13.45 724.84 13.39 729.26 0"/><polygon class="cls-3" points="677.75 0 682.17 13.39 696.27 13.45 684.91 21.8 689.2 35.23 677.75 26.99 666.31 35.23 670.6 21.8 659.23 13.45 673.33 13.39 677.75 0"/><path class="cls-2" d="M767.42,552l-2.14,6.25H749.61V537.66a5.69,5.69,0,0,0-.45-2.94,3,3,0,0,0-2.22-.72h-.87v-.67h19.2l.26,5.46h-.72a7.7,7.7,0,0,0-.86-2.71,3.08,3.08,0,0,0-1.39-1.13,8.45,8.45,0,0,0-2.56-.27h-6.85v9.86h10.09v5h-.72a7.39,7.39,0,0,0-.53-2.41,2.06,2.06,0,0,0-1.11-.94,5.72,5.72,0,0,0-2.28-.38h-5.46v8.25a9.3,9.3,0,0,0,.11,2,1.18,1.18,0,0,0,.49.55,3,3,0,0,0,1.47.25h4.22a11.61,11.61,0,0,0,3-.28,4.43,4.43,0,0,0,1.86-1.19c.28-.28.48-.49.6-.64s.31-.41.57-.79l1.17-2Z"/><path class="cls-2" d="M783.83,554.26,782.59,556a8,8,0,0,1-2.37,2l-1.69.75a19.07,19.07,0,0,1-2.22.71c-.33.07-.67.14-1,.19a7.53,7.53,0,0,1-1.05.07,4.76,4.76,0,0,1-3.2-1.24,4.19,4.19,0,0,1-.9-1.32,5.45,5.45,0,0,1-.26-1.58,1.49,1.49,0,0,1,.45-1,1.89,1.89,0,0,1,1.09-.6,1.55,1.55,0,0,1,1,.46,2,2,0,0,1,.26,1.18l-.11,1.1-.26.91a1.32,1.32,0,0,0,.45.91,2.94,2.94,0,0,0,1.73.53,3.12,3.12,0,0,0,2.22-.94,4.3,4.3,0,0,0,.79-.95,2.83,2.83,0,0,0,.34-1.13l-.11-1.09a2.36,2.36,0,0,0-.34-.94,8.37,8.37,0,0,0-1.2-1.51,14,14,0,0,0-1.88-1.66l-2.37-1.92a8.56,8.56,0,0,1-1.32-1.63l.15,1.85v.53c0,.4,0,.8,0,1.18a13.34,13.34,0,0,1-.17,1.36,5,5,0,0,1-.89,1.86l-1.47,2,.11-1.28a3.29,3.29,0,0,0,.94-1.47l.28-.94a4.36,4.36,0,0,0,.13-.75v-2l-.19-1.43-.7-2.75c-.1-.42-.19-.87-.27-1.34a6.83,6.83,0,0,1-.12-1.11,6.55,6.55,0,0,1,.3-2.07,11.9,11.9,0,0,1,.47-1.11,13.34,13.34,0,0,1,.73-1.3l.87.3a2.91,2.91,0,0,0-.57,1.8l0,.45a3.65,3.65,0,0,0,.6,1.92,12.67,12.67,0,0,0,1.69,2.11q.52.52,1.28,1.2l1.32,1.13,1.43,1.21,1.32,1.2.75,1,.9,1.47a7.67,7.67,0,0,1,.37,2.18,2,2,0,0,1-.07.6l0,.53a1.39,1.39,0,0,0,.3.64,1.93,1.93,0,0,0,.53.19l.49-.11.75-.6.87-.75,1.13-1.35Z"/><path class="cls-2" d="M818.72,552.64a33.39,33.39,0,0,1-3,2.94,15.77,15.77,0,0,1-4.21,2.48c-.5.2-1,.37-1.51.52-.25.08-.68.19-1.3.34a11.36,11.36,0,0,1-2.58.23,12.87,12.87,0,0,1-5.74-1.26,12,12,0,0,1-4.38-3.67,13.07,13.07,0,0,1-2.56-8.05,14.52,14.52,0,0,1,1.67-6.87,11.79,11.79,0,0,1,4.57-4.85,12.6,12.6,0,0,1,6.44-1.68,11.72,11.72,0,0,1,5.34,1.32,3.54,3.54,0,0,0,1.09.41,1.27,1.27,0,0,0,.87-.38l.34-.45.34-.9h.64l.56,8.47h-.56a10.6,10.6,0,0,0-3.22-5.44,7.88,7.88,0,0,0-5.1-1.71,8.1,8.1,0,0,0-4.46,1.24,8.9,8.9,0,0,0-3.18,4,13.61,13.61,0,0,0-.47,1.33,15.15,15.15,0,0,0-.37,1.66c-.11.64-.2,1.25-.25,1.83s-.07,1.26-.07,2a14.57,14.57,0,0,0,1.07,5.87,8.2,8.2,0,0,0,3.29,3.8,18.69,18.69,0,0,0,2.67,1.2,9.72,9.72,0,0,0,2.86.45h1.84l1.88-.5a11.51,11.51,0,0,0,3-1.37,14.07,14.07,0,0,0,1.66-1.26q1-.84,2.3-2.14Z"/><path class="cls-2" d="M836.15,554.26,835,556q-2.08,2.75-4,2.75a1.92,1.92,0,0,1-1.44-.64,3.33,3.33,0,0,1-.53-2.11,6.16,6.16,0,0,1-1.2,1.38l-1.24.81a5.59,5.59,0,0,1-2.52.56,6.26,6.26,0,0,1-4.78-2.34,8.54,8.54,0,0,1-2.08-5.88,10.79,10.79,0,0,1,2.26-6.59,7,7,0,0,1,5.91-3,4.94,4.94,0,0,1,3.65,1.43V540.9h3v13.36a8.24,8.24,0,0,0,.08,1.35.83.83,0,0,0,.28.56,1.49,1.49,0,0,0,.54.23l.49-.11.56-.37.94-1,1.13-1.36Zm-7.08.79v-8.67a5.92,5.92,0,0,0-.62-2.21,4.26,4.26,0,0,0-1.49-1.62,3.63,3.63,0,0,0-1.77-.53,3.94,3.94,0,0,0-2.9,1.47,8.34,8.34,0,0,0-1.66,5.56,8.76,8.76,0,0,0,1.62,5.69,4.12,4.12,0,0,0,6.81.32"/><path class="cls-2" d="M850.49,554.26,849.25,556a8,8,0,0,1-2.37,2l-1.69.75a18.77,18.77,0,0,1-2.22.71c-.33.07-.66.14-1,.19a7.55,7.55,0,0,1-1.05.07,4.76,4.76,0,0,1-3.2-1.24,4.15,4.15,0,0,1-.9-1.32,5.37,5.37,0,0,1-.27-1.58,1.5,1.5,0,0,1,.45-1,1.91,1.91,0,0,1,1.09-.6,1.56,1.56,0,0,1,1,.46,2,2,0,0,1,.26,1.18l-.11,1.1-.26.91a1.31,1.31,0,0,0,.45.91,2.94,2.94,0,0,0,1.73.53,3.11,3.11,0,0,0,2.22-.94,4.39,4.39,0,0,0,.79-.95,2.91,2.91,0,0,0,.34-1.13l-.11-1.09A2.4,2.4,0,0,0,844,554a8.39,8.39,0,0,0-1.21-1.51,13.75,13.75,0,0,0-1.88-1.66l-2.37-1.92a8.67,8.67,0,0,1-1.32-1.63l.15,1.85v.53q0,.6,0,1.18a13.34,13.34,0,0,1-.17,1.36,5,5,0,0,1-.89,1.86l-1.47,2,.11-1.28a3.29,3.29,0,0,0,.94-1.47q.19-.6.28-.94a4.36,4.36,0,0,0,.13-.75v-2l-.19-1.43-.7-2.75c-.1-.42-.19-.87-.27-1.34A6.88,6.88,0,0,1,835,543a6.55,6.55,0,0,1,.3-2.07,11.28,11.28,0,0,1,.47-1.11,12.78,12.78,0,0,1,.73-1.3l.87.3a2.93,2.93,0,0,0-.56,1.8l0,.45a3.65,3.65,0,0,0,.6,1.92,12.81,12.81,0,0,0,1.69,2.11q.53.52,1.28,1.2l1.32,1.13,1.43,1.21,1.32,1.2.75,1,.9,1.47a7.59,7.59,0,0,1,.38,2.18,2,2,0,0,1-.07.6l0,.53a1.39,1.39,0,0,0,.3.64,1.9,1.9,0,0,0,.53.19l.49-.11.75-.6.87-.75,1.13-1.35Z"/><path class="cls-2" d="M851,557.73a2,2,0,0,1-.57-.9,5.85,5.85,0,0,1-.11-1.32V540.82h-2.67v-.6a8.71,8.71,0,0,0,2-1.37,10.08,10.08,0,0,0,1.93-2.28l1.16-2.56h.56v5.76H856l-.75,1.05h-2l0,4.33v10.54a.77.77,0,0,0,.27.53,2.2,2.2,0,0,0,.8.19l1.59-.34.68-.34a4.31,4.31,0,0,0,.83-.79l1.14-1.36v.68l-1.13,2a5.56,5.56,0,0,1-2,1.56,5,5,0,0,1-2.18.66l-1.36-.11a2.06,2.06,0,0,1-1-.6"/><path class="cls-2" d="M875,554.3,873.87,556a9.46,9.46,0,0,1-2,2,6.79,6.79,0,0,1-2.11.94,8.57,8.57,0,0,1-1.13.23,9.74,9.74,0,0,1-1.32.08A16.64,16.64,0,0,1,865,559a11.09,11.09,0,0,1-2.84-.83,6.78,6.78,0,0,1-2.37-1.77,9.12,9.12,0,0,1-2.14-6.36,9.57,9.57,0,0,1,2.22-6.74,7.26,7.26,0,0,1,5.57-2.41,6.28,6.28,0,0,1,4.63,1.88,7.42,7.42,0,0,1,.83,1.18,2.56,2.56,0,0,1,.38,1.26,2,2,0,0,1-.71,1.47l-.49.53a2.77,2.77,0,0,1-1.69.53h-8.13a10.53,10.53,0,0,0,.57,3.35,13.85,13.85,0,0,0,1.28,2.64,14.8,14.8,0,0,0,1.84,2,7.39,7.39,0,0,0,2.52,1.39l1.13.34,1.09.07a5.89,5.89,0,0,0,1.64-.22,7.56,7.56,0,0,0,1.86-.94l.67-.45c.2-.15.38-.3.55-.45a4.12,4.12,0,0,0,.47-.53l1.13-1.35Zm-7.27-9.9a4.4,4.4,0,0,0-1.37-1.62,3.62,3.62,0,0,0-1.94-.57,3.8,3.8,0,0,0-2.74,1.2,5.11,5.11,0,0,0-1.45,3.24h6.18a1.45,1.45,0,0,0,1.09-.36,1.39,1.39,0,0,0,.34-1v-.6Z"/><path class="cls-2" d="M886.66,529.91a1.37,1.37,0,0,1-.43,1,1.94,1.94,0,0,1-1.07.55,1.9,1.9,0,0,1-.87-.26,10.46,10.46,0,0,1-1.2-1.36,3.74,3.74,0,0,0-1.2-1.32,2.62,2.62,0,0,0-1.32-.37,2.19,2.19,0,0,0-1.33.43,2.88,2.88,0,0,0-.92,1.41,27,27,0,0,0-.26,4.89v20.66a1,1,0,0,0,.26.71,1.77,1.77,0,0,0,.53.19l.49-.11,1.51-1.39,1.13-1.32v.67L880.83,556q-2.07,2.73-4,2.73a1.9,1.9,0,0,1-1.43-.64,3.31,3.31,0,0,1-.52-2.1V534.94a10.43,10.43,0,0,1,.22-2.24,9.9,9.9,0,0,1,.68-2,6.81,6.81,0,0,1,6.21-3.87,5.78,5.78,0,0,1,3.54,1.24,2.27,2.27,0,0,1,1.09,1.84"/><path class="cls-2" d="M893.63,529.91a1.38,1.38,0,0,1-.43,1,1.94,1.94,0,0,1-1.07.55,1.9,1.9,0,0,1-.87-.26,10.27,10.27,0,0,1-1.2-1.36,3.76,3.76,0,0,0-1.2-1.32,2.62,2.62,0,0,0-1.32-.37,2.18,2.18,0,0,0-1.33.43,2.88,2.88,0,0,0-.92,1.41,26.77,26.77,0,0,0-.26,4.89v20.66a1,1,0,0,0,.26.71,1.74,1.74,0,0,0,.53.19l.49-.11,1.5-1.39,1.13-1.32v.67L887.79,556q-2.07,2.73-4,2.73a1.9,1.9,0,0,1-1.43-.64,3.3,3.3,0,0,1-.53-2.1V534.94a10.43,10.43,0,0,1,.23-2.24,9.75,9.75,0,0,1,.68-2,6.81,6.81,0,0,1,6.21-3.87,5.78,5.78,0,0,1,3.54,1.24,2.27,2.27,0,0,1,1.09,1.84"/><path class="cls-1" d="M737.21,537.95c0-3.95-7.33-7.14-16.36-7.14s-16.36,3.2-16.36,7.14,7.32,7.14,16.36,7.14,16.36-3.2,16.36-7.14"/><path class="cls-2" d="M721.43,539.92l-.54.82c-.66.87-1.28,1.31-1.88,1.31a.9.9,0,0,1-.68-.31l-.11-.18,0-.14a3.83,3.83,0,0,1-2.12.63,5.4,5.4,0,0,1-.84-.23,1.78,1.78,0,0,1-.38-.15,4,4,0,0,1-.42-.26l-.37-.29-.41-.39-.46-.5V532.8a6.65,6.65,0,0,1,.06-1.18,4.81,4.81,0,0,1,.33-.84,3.25,3.25,0,0,1,2.95-1.83,2.75,2.75,0,0,1,1.68.59,1.07,1.07,0,0,1,.52.87.64.64,0,0,1-.21.47.67.67,0,0,1-.92.14,4.91,4.91,0,0,1-.57-.65,1.74,1.74,0,0,0-.57-.62,1.22,1.22,0,0,0-.63-.18,1,1,0,0,0-.63.21,1.36,1.36,0,0,0-.44.67,13.17,13.17,0,0,0-.12,2.35v2.41a3.19,3.19,0,0,1,2.5-1.6,2.74,2.74,0,0,1,2.15,1,4.26,4.26,0,0,1,.9,2.86,4.63,4.63,0,0,1-.66,2.5l.05.5a.46.46,0,0,0,.12.34.82.82,0,0,0,.25.09l.23-.05a4.82,4.82,0,0,0,.71-.64l.54-.64ZM718.68,538a3.6,3.6,0,0,0-.69-2.32,1.89,1.89,0,0,0-2.47-.62,3.69,3.69,0,0,0-.89.7v4.77l.43.37.48.28a2.4,2.4,0,0,0,1,.21,2,2,0,0,0,1.44-.85,3.88,3.88,0,0,0,.71-2.55"/><path class="cls-2" d="M729.36,539.69l-.54,1.05a7.48,7.48,0,0,1-.83.93l-.5.39v2.38a5,5,0,0,1-.28,1.92,1.63,1.63,0,0,1-1.26,1l-.48.07h-.35a1.41,1.41,0,0,1-.93-.36,1.18,1.18,0,0,1-.42-.95,3.6,3.6,0,0,1,.71-1.84l1.61-2.21v-1.5l-.64.52a7.25,7.25,0,0,1-1,.71l-.5.19-.59.07a1.81,1.81,0,0,1-1.11-.37,2.2,2.2,0,0,1-.74-1,7.11,7.11,0,0,1-.18-1.73V533.6h1.45v5.57a2,2,0,0,0,.39,1.46,1.42,1.42,0,0,0,.41.27,1.34,1.34,0,0,0,.52.09,2,2,0,0,0,.84-.25,4.26,4.26,0,0,0,1.14-.89v-6.16h1.43l0,2v4.89a.35.35,0,0,0,.13.25.83.83,0,0,0,.26.09l.23-.05a5,5,0,0,0,.71-.64l.53-.87Zm-3.28,6.15V543l-.8,1.32a7.89,7.89,0,0,0-.54,1.07l-.07.25-.05.44a1.25,1.25,0,0,0,.05.42.34.34,0,0,0,.27.21h.29a.82.82,0,0,0,.29-.09.84.84,0,0,0,.34-.3Z"/></g></g></svg>